<?xml version="1.0" encoding="utf-8"?>
<!-- Generator: Adobe Illustrator 27.5.0, SVG Export Plug-In . SVG Version: 6.00 Build 0)  -->
<svg version="1.1" xmlns="http://www.w3.org/2000/svg" xmlns:xlink="http://www.w3.org/1999/xlink" x="0px" y="0px"
	 viewBox="0 0 500 500" style="enable-background:new 0 0 500 500;" xml:space="preserve">
<g id="BACKGROUND">
</g>
<g id="OBJECTS">
	<g>
		<path style="fill:#C9E2FF;" d="M325.19,184.454c-10.508-2.083-30.098-78.483-3.321-81.169
			c26.776-2.686,16.264,37.061,17.712,40.529c1.45,3.469,21.658-36.384,38.335-17.416
			C394.594,145.368,338.852,187.163,325.19,184.454z"/>
		<path style="fill:#C9E2FF;" d="M97.567,99.077c44.014-68.114,140.175-51.462,160.639,39.964
			c20.464,91.426,57.224,86.143,98.498,71.484c41.273-14.658,73.162-0.584,88.873,51.724
			c24.227,80.665-41.3,104.071-145.776,104.071C149.421,366.321-41.357,314.072,97.567,99.077z"/>
	</g>
	<path style="fill:#BDE76B;" d="M101.311,373.776c-29.625,0-60.357,4.253-58.647,28.303c1.71,24.049,51.098,51.664,128.428,43.291
		c29.421-3.186,30.881-17.412,37.149-17.183c6.27,0.228,15.681,16.819,100.315,16.38c78.993-0.409,158.414-26.218,147.908-57.547
		c-5.811-17.329-27.387-15.618-92.616-15.618C300.83,371.402,191.183,373.776,101.311,373.776z"/>
	<g>
		<path style="fill:#9BD61A;" d="M348.702,308.829c0.606-2.047,9.485-26.073,3.943-35.458c-5.543-9.389-11.205-13.88-19.289-7.693
			c-8.088,6.186,0.189,20.247,3.309,24.442C339.789,294.313,347.849,311.705,348.702,308.829z"/>
		<path style="fill:#76B504;" d="M348.702,308.829c0.606-2.047,9.485-26.073,3.943-35.458c-0.201-0.341-0.401-0.67-0.602-0.995
			c-5.848,4.991-11.409,10.235-16.635,15.918c0.465,0.72,0.896,1.34,1.256,1.826C339.789,294.313,347.849,311.705,348.702,308.829z"
			/>
		<path style="fill:#9BD61A;" d="M354.398,293.674c-1.902,1.652,10.013-22.485,22.815-25.837
			c12.803-3.351,24.515-1.523,25.251,8.505c0.737,10.027-2.068,13.367-14.296,14.931
			C375.942,292.831,357.477,291.003,354.398,293.674z"/>
		<path style="fill:#76B504;" d="M377.214,267.837c-12.803,3.352-24.718,27.489-22.815,25.837
			c2.471-2.144,14.842-1.391,25.952-1.815c0.799-8.326,1.343-16.552,1.393-24.992C380.258,267.111,378.745,267.437,377.214,267.837z
			"/>
		<g>
			<path d="M347.061,334.393c-2.807-29.178,11.318-58.198,32.926-77.312c7.238-6.349,15.279-12.569,23.755-16.805
				c-7.935,5.191-16.32,10.608-23.369,17.231c-21.365,19.133-35.393,47.827-32.985,76.838c0.017,0.093-0.049,0.185-0.145,0.194
				C347.152,334.549,347.071,334.484,347.061,334.393L347.061,334.393z"/>
		</g>
		<g>
			<path d="M340.272,268.414c3.846,9.235,6.136,19.036,7.953,28.845c0.624,3.269,1.168,6.551,1.68,9.837
				c0.014,0.09-0.047,0.175-0.137,0.189c-0.088,0.014-0.171-0.045-0.188-0.131c-1.85-9.488-3.827-19.928-6.503-29.165
				c-0.939-3.182-1.961-6.34-3.112-9.454C339.892,268.35,340.193,268.212,340.272,268.414L340.272,268.414z"/>
		</g>
		<path style="fill:#9BD61A;" d="M368.277,270.092c1.194-1.77,16.899-22.005,14.441-32.623c-2.458-10.622-6.504-16.61-16.076-13.146
			c-9.575,3.463-5.917,19.364-4.206,24.303C364.151,253.565,366.597,272.579,368.277,270.092z"/>
		<path style="fill:#76B504;" d="M382.865,241.707c-7.28-0.929-14.727-0.529-21.898,1.211c0.441,2.372,1.022,4.416,1.469,5.707
			c1.715,4.94,4.161,23.954,5.841,21.467C369.326,268.538,381.576,252.725,382.865,241.707z"/>
		<g>
			<path d="M372.413,229.015c0.885,9.964,0.116,19.999-1.105,29.9c-0.389,3.305-0.859,6.598-1.361,9.886
				c-0.013,0.09-0.098,0.152-0.188,0.139c-0.088-0.013-0.149-0.094-0.14-0.182c1.094-9.604,2.353-20.154,2.584-29.767
				c0.063-3.317,0.04-6.636-0.12-9.952C372.07,228.84,372.398,228.799,372.413,229.015L372.413,229.015z"/>
		</g>
		<g>
			<path d="M354.277,294.599c7.3-10.776,19.721-18.014,32.782-18.522c0.2-0.008,0.237,0.312,0.021,0.329
				c-9.626,0.78-18.882,4.804-26.049,11.267c-2.378,2.156-4.549,4.544-6.486,7.117C354.43,294.955,354.15,294.774,354.277,294.599
				L354.277,294.599z"/>
		</g>
		<path style="fill:#9BD61A;" d="M401.572,241.766c-0.75,2.108-2.069-21.752,6.366-29.928c8.439-8.177,18.288-11.874,23.234-4.442
			c4.944,7.429,4.232,11.236-4.538,17.779C417.861,231.717,402.787,238.357,401.572,241.766z"/>
		<path style="fill:#76B504;" d="M401.572,241.766c1.038-2.911,12.176-8.177,20.872-13.727c-5.865-3.921-11.675-7.946-17.542-11.863
			C399.873,226.296,400.929,243.574,401.572,241.766z"/>
		<g>
			<path d="M401.863,242.533c0.9-11.532,7.362-22.575,17.272-28.635c0.171-0.106,0.358,0.155,0.181,0.276
				c-9.52,6.432-15.709,17.05-17.124,28.395C402.171,242.769,401.839,242.746,401.863,242.533L401.863,242.533z"/>
		</g>
		<path style="fill:#9BD61A;" d="M388.733,250.527c-2.47,0.502,19.788-14.635,32.581-11.245
			c12.793,3.391,22.085,10.751,17.786,19.84c-4.297,9.09-8.385,10.614-19.795,5.95C407.895,260.407,392.728,249.72,388.733,250.527z
			"/>
		<path style="fill:#76B504;" d="M421.314,239.282c-12.793-3.39-35.051,11.747-32.581,11.245c3.699-0.747,16.98,8.36,27.986,13.417
			c1.853-8.162,4.216-16.047,5.913-24.294C422.197,239.523,421.757,239.399,421.314,239.282z"/>
		<g>
			<path d="M388.172,251.272c11.661-5.78,26.035-5.96,37.651,0.032c0.178,0.092,0.052,0.388-0.144,0.297
				c-8.761-4.063-18.798-5.121-28.218-3.027c-3.132,0.704-6.198,1.713-9.15,2.998C388.13,251.658,387.976,251.361,388.172,251.272
				L388.172,251.272z"/>
		</g>
		<g>
			<path d="M331.367,272.806c3.577,10.275,9.499,20.015,15.091,29.323c0.047,0.078,0.022,0.18-0.056,0.227
				c-0.076,0.046-0.173,0.023-0.222-0.049c-1.538-2.293-3.045-4.608-4.488-6.964c-2.888-4.714-5.574-9.567-7.785-14.641
				c-1.103-2.539-2.075-5.138-2.853-7.794C330.994,272.715,331.299,272.602,331.367,272.806L331.367,272.806z"/>
		</g>
		<g>
			<path d="M372.155,290.52c7.79-0.964,16.042-0.992,23.865-1.645c0.201-0.02,0.247,0.301,0.038,0.328
				c-6.859,1.059-16.859,1.26-23.873,1.646C371.984,290.863,371.945,290.543,372.155,290.52L372.155,290.52z"/>
		</g>
		<g>
			<path d="M362.533,235.239c-0.203,7.078,2.432,14.083,4.615,20.723c0.029,0.087-0.018,0.18-0.105,0.209
				c-0.083,0.027-0.172-0.016-0.205-0.095c-0.68-1.655-1.347-3.317-1.952-5.006c-1.806-5.052-3.234-10.443-2.683-15.851
				C362.223,235.017,362.542,235.03,362.533,235.239L362.533,235.239z"/>
		</g>
		<g>
			<path d="M404.808,254.719c6.128,4.612,12.978,8.251,20.312,10.521c0.194,0.056,0.116,0.372-0.087,0.318
				c-5.651-1.342-11.018-3.815-15.831-7.054c-1.605-1.083-3.141-2.264-4.601-3.529C404.447,254.846,404.642,254.59,404.808,254.719
				L404.808,254.719z"/>
		</g>
		<g>
			<path d="M406.623,235.17c2.967-1.968,7.009-4.68,9.938-6.702l3.288-2.276c0.163-0.117,0.361,0.132,0.201,0.262
				c-1.018,0.868-2.061,1.707-3.131,2.51c-3.211,2.406-6.578,4.616-10.128,6.49C406.616,235.55,406.45,235.28,406.623,235.17
				L406.623,235.17z"/>
		</g>
		<g>
			<path style="fill:#FFFFFF;" d="M376.076,226.529c4.267,4.915,5.789,12.187,3.725,18.376c-0.078,0.249-0.475,0.152-0.419-0.109
				c1.35-6.253-0.043-12.766-3.652-18.007C375.581,226.576,375.908,226.323,376.076,226.529L376.076,226.529z"/>
		</g>
		<g>
			<path style="fill:#FFFFFF;" d="M412.948,208.052c4.819-4.284,12.814-4.981,17.724-0.424c0.199,0.17-0.047,0.495-0.265,0.342
				c-5.141-3.804-12.116-3.109-17.203,0.431C412.99,208.547,412.741,208.217,412.948,208.052L412.948,208.052z"/>
		</g>
		<g>
			<path style="fill:#FFFFFF;" d="M426.316,243.375c5.272,1.733,10.023,5.396,12.891,10.166c0.135,0.221-0.196,0.455-0.356,0.246
				c-3.374-4.323-7.758-7.673-12.695-10.01C425.919,243.669,426.067,243.289,426.316,243.375L426.316,243.375z"/>
		</g>
		<g>
			<path style="fill:#FFFFFF;" d="M386.64,267.253c4.724,0.146,9.473,2.114,12.865,5.415c0.185,0.178-0.07,0.486-0.279,0.331
				c-3.762-2.735-8.07-4.497-12.633-5.316C386.34,267.64,386.381,267.24,386.64,267.253L386.64,267.253z"/>
		</g>
		<g>
			<path style="fill:#FFFFFF;" d="M345.758,267.726c2.577,1.118,4.53,3.693,5.01,6.448c0.019,0.119-0.062,0.231-0.181,0.25
				c-0.098,0.016-0.191-0.038-0.232-0.122c-1.104-2.461-2.703-4.549-4.819-6.204C345.341,267.948,345.536,267.626,345.758,267.726
				L345.758,267.726z"/>
		</g>
	</g>
	<g>
		<path style="fill:#632C0F;" d="M262.349,232.797c8.777-7.067,35.506-11.725,63.637,17.213
			c28.129,28.937,31.798,74.963,31.228,92.103c-0.571,17.138-13.162,29.446-24.103,32.656c-10.943,3.209-28.337-0.072-51.939-47.168
			C257.568,280.502,243.963,247.602,262.349,232.797z"/>
		<path style="fill:#491B08;" d="M301.482,250.616c1.575-1.772,17.045,7.145,25.371,16.971c8.325,9.827,18.934,36.418,16.908,38.621
			c-2.025,2.202-17.938-19.181-23.429-28.072C314.838,269.245,298.201,254.309,301.482,250.616z"/>
		<path style="fill:#491B08;" d="M290.628,255.022c3.34-2.457,14.841,8.313,22.625,20.968c7.783,12.654,15.471,35.326,12.067,37.379
			c-3.406,2.051-15.639-22.943-20.252-30.62C300.455,275.073,288.035,256.929,290.628,255.022z"/>
		<path style="opacity:0.5;fill:#491B08;" d="M312.552,298.846c-14.153,6.482-30.059,6.169-44.639,1.176
			c3.855,8.555,8.334,17.753,13.259,27.579c23.602,47.096,40.996,50.377,51.939,47.168c10.941-3.21,23.532-15.518,24.103-32.656
			c0.447-13.464-1.724-44.751-16.309-71.579C336.112,283.345,324.959,293.521,312.552,298.846z"/>
		<g>
			<path d="M299.314,299.249c-9.191-16.237-17.632-32.91-25.149-49.987c-0.085-0.182,0.213-0.334,0.3-0.137
				c5.795,12.274,12.374,25.63,18.616,37.593c0,0,6.522,12.372,6.522,12.372C299.698,299.261,299.421,299.443,299.314,299.249
				L299.314,299.249z"/>
		</g>
		<g>
			<path d="M285.082,235.909c15.955,3.598,30.759,11.986,42.363,23.473c0.14,0.14-0.07,0.389-0.229,0.238
				c-8.913-8.321-19.313-15.043-30.629-19.597c-3.776-1.496-7.644-2.77-11.581-3.793
				C284.812,236.186,284.87,235.856,285.082,235.909L285.082,235.909z"/>
		</g>
		<g>
			<path d="M271.09,239.137c0.134-4.073,4.281-4.855,7.373-3.394c0.183,0.075,0.089,0.359-0.102,0.314
				c-3.096-0.786-6.234-0.47-6.943,3.128C271.376,239.377,271.076,239.332,271.09,239.137L271.09,239.137z"/>
		</g>
		<g>
			<path d="M303.003,303.731c1.721-0.723,3.179,0.84,2.919,2.503c-0.016,0.18-0.282,0.198-0.329,0.028
				c-0.209-0.654-0.404-1.289-0.832-1.67c-0.393-0.414-1.018-0.499-1.701-0.536C302.881,304.056,302.839,303.793,303.003,303.731
				L303.003,303.731z"/>
		</g>
		<g>
			<path d="M307.472,310.105c0.887-0.469,2.582-0.162,2.71,1.104c0.055,0.378-0.001,0.735-0.126,1.055
				c-0.034,0.087-0.132,0.13-0.218,0.096c-0.064-0.025-0.104-0.084-0.107-0.149c-0.05-0.626-0.149-1.198-0.561-1.436
				c-0.384-0.295-1.01-0.299-1.638-0.346C307.353,310.431,307.307,310.166,307.472,310.105L307.472,310.105z"/>
		</g>
		<g>
			<path d="M271.807,242.142c1.371-0.634,2.842,0.687,2.58,2.117c-0.018,0.174-0.273,0.197-0.328,0.035
				c-0.211-0.547-0.401-1.055-0.769-1.348c-0.339-0.325-0.852-0.407-1.433-0.477C271.684,242.456,271.65,242.204,271.807,242.142
				L271.807,242.142z"/>
		</g>
		<g>
			<path d="M288.841,246.46c1.04-1.282,2.4-0.043,2.202,1.249c-0.006,0.173-0.258,0.216-0.324,0.06
				c-0.341-0.56-0.421-1.198-1.061-1.195c-0.18,0.008-0.399,0.085-0.632,0.156C288.871,246.783,288.738,246.583,288.841,246.46
				L288.841,246.46z"/>
		</g>
		<g>
			<path d="M333.324,303.664c1.03-0.684,2.492,0.21,2.423,1.425c0.002,0.167-0.237,0.23-0.318,0.087
				c-0.267-0.403-0.492-0.755-0.821-0.93c-0.309-0.207-0.715-0.231-1.198-0.263C333.242,303.981,333.184,303.748,333.324,303.664
				L333.324,303.664z"/>
		</g>
		<g>
			<path d="M343.936,309.159c1.614-0.698,2.994,0.793,2.641,2.349c-0.026,0.173-0.287,0.183-0.328,0.016
				c-0.174-0.61-0.326-1.203-0.709-1.54c-0.342-0.374-0.918-0.45-1.547-0.499C343.814,309.481,343.774,309.222,343.936,309.159
				L343.936,309.159z"/>
		</g>
		<g>
			<path d="M354.321,319.11c-2.942-12.276-4.047-25.184-9.802-36.599c-0.094-0.177,0.192-0.345,0.292-0.154
				c4.641,8.402,6.471,17.972,8.114,27.326c0.572,3.121,1.108,6.245,1.718,9.356C354.685,319.234,354.369,319.321,354.321,319.11
				L354.321,319.11z"/>
		</g>
		<g>
			<path d="M274.32,310.654c-4.889-11.076-12.269-26.434-15.792-37.869c-0.062-0.19,0.243-0.31,0.313-0.105
				c3.296,9.307,7.882,19.272,11.827,28.377c1.378,3.13,2.71,6.283,3.957,9.47C274.7,310.711,274.406,310.854,274.32,310.654
				L274.32,310.654z"/>
		</g>
		<g>
			<path d="M281.712,311.196c0.968-4.37,2.424-9.741,3.649-14.07c0.444-1.553,0.913-3.099,1.398-4.642
				c0.025-0.088,0.117-0.138,0.204-0.113c0.083,0.024,0.132,0.112,0.116,0.195c-0.356,1.577-0.729,3.149-1.126,4.716
				c-0.59,2.344-1.855,7.04-2.523,9.362c-0.445,1.553-0.913,3.101-1.4,4.642C281.97,311.481,281.661,311.399,281.712,311.196
				L281.712,311.196z"/>
		</g>
		<g>
			<path d="M288.833,316.876c1.005-3.311,2.419-7.826,3.455-11.128l1.178-3.704c0.058-0.193,0.366-0.115,0.319,0.085
				c-0.532,2.544-1.231,5.047-1.99,7.532c-0.788,2.476-1.637,4.933-2.651,7.326C289.07,317.175,288.77,317.072,288.833,316.876
				L288.833,316.876z"/>
		</g>
		<g>
			<path style="fill:#FFFFFF;" d="M265.156,232.043c14.662-5.948,30.597-2.529,43.898,5.195c4.418,2.5,8.589,5.402,12.556,8.543
				c0.094,0.074,0.11,0.21,0.035,0.304c-0.073,0.092-0.205,0.108-0.298,0.04c-4.059-2.991-8.276-5.765-12.683-8.187
				c-13.02-7.386-28.968-10.901-43.354-5.491C265.057,232.561,264.873,232.133,265.156,232.043L265.156,232.043z"/>
		</g>
		<g>
			<path d="M286.159,335.331c-1.949-3.812-3.65-7.707-5.142-11.719c-0.037-0.087,0.006-0.19,0.096-0.221
				c0.078-0.028,0.164,0.007,0.201,0.079c0.995,1.892,1.866,3.846,2.744,5.796c0.841,1.966,1.692,3.929,2.407,5.944
				C286.537,335.399,286.24,335.522,286.159,335.331L286.159,335.331z"/>
		</g>
		<g>
			<path d="M302.874,357.765c6.648,10.613,19.847,18.778,32.49,14.43c0.197-0.084,0.328,0.248,0.11,0.311l-2.324,0.733l-2.393,0.484
				c-8.188,1.098-16.368-2.495-22.154-8.173c-2.353-2.241-4.374-4.818-6.01-7.613C302.495,357.764,302.756,357.583,302.874,357.765
				L302.874,357.765z"/>
		</g>
		<g>
			<path d="M343.622,364.787c5.954-5.737,9.563-13.694,10.135-21.928c0.009-0.202,0.337-0.198,0.33,0.013
				c-0.066,8.375-3.843,16.725-10.243,22.158C343.691,365.163,343.469,364.932,343.622,364.787L343.622,364.787z"/>
		</g>
		<g>
			<path d="M316.622,323.524c6.091,11.617,12.87,23.14,22.427,32.267c0.148,0.134-0.063,0.391-0.222,0.244
				c-7.452-6.585-13.168-14.908-17.979-23.55c-1.62-2.88-3.118-5.826-4.521-8.814C316.24,323.491,316.524,323.331,316.622,323.524
				L316.622,323.524z"/>
		</g>
		<g>
			<path d="M309.257,352.171c1.525-3.515,2.955-7.025,4.298-10.615c0.067-0.185,0.364-0.098,0.316,0.096
				c-0.875,3.746-2.336,7.374-4.321,10.67C309.45,352.492,309.176,352.353,309.257,352.171L309.257,352.171z"/>
		</g>
		<g>
			<path d="M313.65,351.38c1.411-2.833,2.605-5.73,3.726-8.69c0.033-0.085,0.129-0.128,0.214-0.095
				c0.075,0.029,0.117,0.108,0.103,0.185c-0.654,3.128-1.895,6.171-3.763,8.774C313.816,351.712,313.559,351.554,313.65,351.38
				L313.65,351.38z"/>
		</g>
		<g>
			<path d="M268.577,265.591c0.663-1.322,2.315-0.743,2.509,0.515c0.04,0.165-0.183,0.278-0.293,0.153
				c-0.34-0.324-0.63-0.657-0.936-0.719c-0.276-0.117-0.621,0.054-1.038,0.276C268.678,265.905,268.498,265.736,268.577,265.591
				L268.577,265.591z"/>
		</g>
		<g>
			<path d="M306.042,334.315c0.034-1.179,1.21-1.389,1.815-0.447c0.146,0.196,0.582,0.993,0.034,0.83
				c-0.354-0.265-0.653-0.625-0.916-0.722c-0.277-0.121-0.421,0.25-0.63,0.458C306.245,334.559,306.029,334.472,306.042,334.315
				L306.042,334.315z"/>
		</g>
		<g>
			<path d="M324.656,359.831c0.193-0.899,1.366-1.68,2.17-0.978c0.247,0.147,0.867,1.069,0.238,0.894
				c-0.406-0.306-0.77-0.557-1.072-0.466c-0.331,0.043-0.672,0.393-1.055,0.723C324.817,360.123,324.605,359.99,324.656,359.831
				L324.656,359.831z"/>
		</g>
	</g>
	<g>
		<g>
			<g>
				<path d="M373.598,372.162c5.508-7.758,11.147-15.426,17.188-22.784c9.737-11.182,21.86-24.411,31.793-35.36
					c0.129-0.148,0.395,0.058,0.246,0.221c-9.697,11.116-21.763,24.454-31.548,35.55c-4.064,4.852-7.903,9.9-11.711,14.958
					c-1.916,2.523-3.818,5.059-5.699,7.607C373.753,372.519,373.467,372.338,373.598,372.162L373.598,372.162z"/>
			</g>
			<g>
				<path d="M428.578,340.69c-6.76,0.254-15.178,0.309-21.98,0.304c-2.442-0.006-4.885-0.038-7.328-0.086
					c-0.201-0.001-0.216-0.327-0.002-0.33c6.76-0.249,15.178-0.31,21.98-0.307c2.442,0.007,4.885,0.038,7.328,0.089
					C428.777,340.361,428.791,340.687,428.578,340.69L428.578,340.69z"/>
			</g>
			<path style="fill:#EBA90E;" d="M417.409,317.512c2.822,5.737,16.943-0.097,11.837-8.237
				C424.138,301.134,413.191,308.943,417.409,317.512z"/>
			<path style="fill:#EBA90E;" d="M422.739,344.889c2.819,5.735,16.941-0.099,11.835-8.24
				C429.467,328.509,418.519,336.319,422.739,344.889z"/>
			<g>
				<path d="M421.261,307.975c-3.93,3.03-3.005,6.531,0.281,9.61c0.147,0.136-0.055,0.374-0.214,0.251
					c-2.488-1.693-4.613-5.268-2.528-8.064C418.906,309.392,421.601,306.868,421.261,307.975L421.261,307.975z"/>
			</g>
			<g>
				<path d="M425.855,336.481c-2.614,4.488-2.788,8.073,3.264,8.73c0.202,0.017,0.184,0.337-0.02,0.33
					c-4.011,0.102-6.912-2.253-5.165-6.404C424.022,338.786,425.822,335.327,425.855,336.481L425.855,336.481z"/>
			</g>
			<g>
				<path style="fill:#FFFFFF;" d="M424.741,308.013c2.365,0.792,3.911,3.446,3.756,5.881c-0.011,0.242-0.375,0.275-0.431,0.041
					c-0.544-2.238-1.66-4.187-3.527-5.539C424.344,308.256,424.517,307.933,424.741,308.013L424.741,308.013z"/>
			</g>
			<g>
				<path style="fill:#FFFFFF;" d="M430.758,335.027c1.728,1.301,2.616,3.857,1.848,5.918c-0.081,0.224-0.431,0.155-0.425-0.08
					c0.008-1.519-0.299-2.917-0.992-4.24c-0.219-0.441-0.481-0.864-0.748-1.303C430.309,335.124,430.574,334.883,430.758,335.027
					L430.758,335.027z"/>
			</g>
		</g>
		<g>
			<g>
				<path d="M111.66,380.962c-4.954-11.881-9.869-23.8-15.417-35.417c-9.122-17.876-20.468-39.392-29.523-57.242
					c-0.097-0.174,0.196-0.349,0.293-0.153c6.979,13.113,16.945,32.272,23.951,45.632c4.026,7.585,7.809,15.324,11.165,23.235
					c3.43,7.879,6.687,15.829,9.837,23.822C112.046,381.024,111.737,381.166,111.66,380.962L111.66,380.962z"/>
			</g>
			<g>
				<path d="M52.541,320.602c11.741,3.08,24.585,6.719,36.202,10.24c0.192,0.056,0.118,0.376-0.09,0.318
					c-8.402-2.189-18.806-5.108-27.185-7.561c-3.015-0.86-6.02-1.755-9.017-2.679C52.26,320.864,52.333,320.544,52.541,320.602
					L52.541,320.602z"/>
			</g>
			<path style="fill:#EBA90E;" d="M72.504,294.45c-5.035,6.548-20.936-5.881-12.429-14.795
				C68.587,270.739,80.028,284.673,72.504,294.45z"/>
			<path style="fill:#EBA90E;" d="M58.545,328.452c-5.031,6.545-20.934-5.884-12.425-14.799
				C54.628,304.739,66.071,318.674,58.545,328.452z"/>
			<g>
				<path d="M70.585,280.417c4.636,4.855,2.851,10.484-3.038,13.072c-0.184,0.088-0.331-0.188-0.154-0.292
					c5.339-3.045,6.868-7.514,2.938-12.569C70.204,280.469,70.449,280.263,70.585,280.417L70.585,280.417z"/>
			</g>
			<g>
				<path d="M57.302,316.266c2.78,6.395,1.649,12.98-6.802,10.821c-0.201-0.047-0.137-0.362,0.068-0.323
					c8.158,1.401,8.36-4.184,6.423-10.387C56.924,316.183,57.226,316.073,57.302,316.266L57.302,316.266z"/>
			</g>
			<g>
				<path style="fill:#FFFFFF;" d="M66.132,280.093c-2.77,1.174-4.561,3.365-5.84,6.039c-0.069,0.142-0.241,0.201-0.383,0.132
					c-0.113-0.055-0.173-0.179-0.158-0.297c0.405-3.107,3.007-6.154,6.244-6.423C66.308,279.511,66.422,279.976,66.132,280.093
					L66.132,280.093z"/>
			</g>
			<g>
				<path style="fill:#FFFFFF;" d="M51.595,313.305c-1.895,1.889-3.124,4.03-3.64,6.664c-0.054,0.31-0.528,0.293-0.566-0.015
					c-0.423-2.841,1.294-5.919,3.881-7.112C51.552,312.703,51.817,313.091,51.595,313.305L51.595,313.305z"/>
			</g>
		</g>
	</g>
	<g>
		<path style="fill:#FCD450;" d="M113.456,296.527c0,0,9.402,83.824,11.354,91.618c1.95,7.792,120.591,5.709,122.706-2.713
			c2.114-8.421,8.518-96.18,8.518-96.18L113.456,296.527z"/>
		<path style="fill:#F9B443;" d="M205.705,352.748c-33.479,8.37-62.298-9.142-89.149-29.101c2.925,25.227,7.038,59.64,8.254,64.498
			c1.95,7.792,120.591,5.709,122.706-2.713c1.333-5.305,4.366-42.096,6.43-68.598C240.398,333.275,225.669,347.757,205.705,352.748z
			"/>
		<path style="fill:#559304;" d="M113.404,304.036c-5.22-2.169-1.135-10.788-1.703-17.176c-0.568-6.389-7.097-103.193-7.949-109.581
			c-0.852-6.387-3.833-16.324-1.704-21.434c2.129-5.11,154.436-14.762,158.126-11.213c3.689,3.549,0.993,20.439,0.426,23.846
			c-0.568,3.407-4.4,101.49-3.976,106.033c0.426,4.543,3.265,10.788,0.853,18.169C255.064,300.062,119.021,306.367,113.404,304.036z
			"/>
		<path style="fill:#4C7C00;" d="M195.431,155.515c23.738,3.274,46.013,15.315,64.224,30.903
			c0.444-10.048,0.801-17.071,0.946-17.939c0.567-3.407,3.264-20.297-0.426-23.846c-3.69-3.549-155.997,6.104-158.126,11.213
			c-2.129,5.11,0.851,15.046,1.704,21.434c0.08,0.601,0.211,2.005,0.381,4.058C127.316,157.941,162.754,151.53,195.431,155.515z"/>
		<path style="fill:#4C7C00;" d="M258.516,213.938c-14.298,19.858-33.478,35.63-58.497,38.837
			c-33.922,3.854-66.546-10.432-92.979-31.967c2.051,29.02,4.335,62.391,4.661,66.053c0.568,6.388-3.518,15.007,1.703,17.176
			c5.617,2.331,141.66-3.975,144.074-11.355c2.412-7.381-0.427-13.626-0.853-18.169
			C256.393,272.027,257.433,241.583,258.516,213.938z"/>
		<path style="fill:#F9B443;" d="M103.089,148.356c0,0,2.547-33.904,5.255-35.828c2.708-1.925,39.576-13.273,66.555-14.99
			c26.978-1.717,71.955,3.997,74.657,6.248c2.702,2.252,7.387,30.699,7.387,30.699L103.089,148.356z"/>
		<g>
			<path d="M166.501,123.557c9.219,3.928,18.018,8.872,26.174,14.694c0.165,0.115-0.007,0.391-0.185,0.273
				c-6.316-4.037-12.781-7.833-19.435-11.286c-2.216-1.153-4.445-2.281-6.691-3.381
				C166.183,123.772,166.307,123.469,166.501,123.557L166.501,123.557z"/>
		</g>
		<path style="fill:#A5DB2D;" d="M179.508,258.976c-0.046-3.414,13.53-17.62,15.63-18.28c2.1-0.659,0.814,6.633,3.191,6.423
			c2.378-0.21,21.093-6.312,21.093-6.312s-6.328-14.304-4.953-15.788c1.375-1.484,11.179-5.443,13.117-4.683
			c1.938,0.761,8.491,22.459,8.789,27.1c0.296,4.641-31.489,12.077-33.341,13.579c-1.851,1.503,1.492,5.412-0.472,7.127
			C200.601,269.86,179.559,262.839,179.508,258.976z"/>
		<path style="fill:#A5DB2D;" d="M170.374,200.569c2.542,2.278,3.797,21.888,2.86,23.88c-0.936,1.992-5.431-3.894-6.886-2.003
			c-1.456,1.892-9.307,20.104-9.307,20.104s17.706,4.728,17.867,6.745c0.16,2.017-3.296,11.975-5.168,12.885
			c-1.873,0.91-25.443-8.724-29.059-11.648c-3.614-2.927,12.107-31.657,12.256-34.037c0.149-2.378-4.99-2.567-4.924-5.174
			C148.079,208.714,167.497,197.989,170.374,200.569z"/>
		<path style="fill:#A5DB2D;" d="M218.65,217.359c-3.138,1.345-21.45-5.775-22.863-7.464c-1.412-1.689,5.819-3.286,4.717-5.402
			c-1.103-2.118-15.23-15.533-15.23-15.533s-6.669,11.191-8.566,10.487c-1.897-0.705-10.295-5.301-10.332-7.382
			c-0.038-2.082,12.952-19.375,17.127-21.423c4.176-2.046,25.951,23.057,28.046,24.195c2.095,1.137,4.432-3.445,6.768-2.286
			C220.653,193.708,222.201,215.837,218.65,217.359z"/>
		<g>
			<path d="M105.961,145.294l2.751-20.388c0.012-0.09,0.095-0.154,0.186-0.142c0.086,0.012,0.147,0.088,0.143,0.173
				c-0.099,1.715-0.231,3.429-0.404,5.138c-0.344,3.419-0.804,6.826-1.375,10.214c-0.287,1.694-0.613,3.381-0.975,5.061
				C106.248,145.549,105.93,145.501,105.961,145.294L105.961,145.294z"/>
		</g>
		<g>
			<path d="M254.606,133.045c-1.917-6.688-3.341-13.52-4.285-20.412c-0.03-0.2,0.286-0.262,0.325-0.056c0,0,4.28,20.389,4.28,20.389
				C254.971,133.163,254.66,133.248,254.606,133.045L254.606,133.045z"/>
		</g>
		<g>
			<path d="M123.542,297.845c41.092,1.202,81.873-4.908,122.57-9.724c0.09-0.01,0.173,0.054,0.183,0.145
				c0.01,0.09-0.053,0.171-0.143,0.183c-30.519,3.964-61.047,8.376-91.831,9.645c-10.257,0.443-20.534,0.51-30.791,0.081
				c-0.091-0.004-0.162-0.081-0.158-0.172C123.376,297.913,123.452,297.843,123.542,297.845L123.542,297.845z"/>
		</g>
		<g>
			<path d="M111.312,236.274c-1.415-14.929-2.711-31.375-3.67-46.34c-0.015-0.202,0.319-0.242,0.329-0.02
				c1.027,10.678,2.103,23.979,2.875,34.739c0.298,3.861,0.562,7.725,0.794,11.593c0.007,0.091-0.061,0.17-0.152,0.178
				C111.4,236.429,111.322,236.361,111.312,236.274L111.312,236.274z"/>
		</g>
		<g>
			<path d="M253.989,232.582c0.467-16.903,1.884-35.451,3.211-52.304c0.013-0.196,0.344-0.199,0.329,0.022
				c-0.622,12.075-1.655,27.088-2.442,39.221c0,0-0.769,13.075-0.769,13.075C254.311,232.792,253.979,232.802,253.989,232.582
				L253.989,232.582z"/>
		</g>
		<g>
			<path d="M136.805,189.789c32.174,22.891,66.831,45.171,100.461,66.057c0.176,0.101,0.008,0.399-0.173,0.282
				c-25.739-15.549-51.14-31.675-75.921-48.715c-8.272-5.663-16.462-11.446-24.56-17.355
				C136.444,189.943,136.633,189.658,136.805,189.789L136.805,189.789z"/>
		</g>
		<g>
			<path d="M147.619,187.037c25.278,17.918,52.465,35.411,78.832,51.834c0.174,0.101,0.01,0.399-0.173,0.282
				c-20.219-12.168-40.157-24.82-59.594-38.206c-6.491-4.446-12.913-8.992-19.258-13.642
				C147.261,187.191,147.445,186.906,147.619,187.037L147.619,187.037z"/>
		</g>
		<path style="fill:#FCD450;" d="M98.673,159.708c-2.806-2.39-2.664-12.268,0.956-15.389c3.621-3.121,63.395-13.183,92.743-14.704
			c29.349-1.521,69.311-0.249,71.756,3.299c2.445,3.548,3.207,13.52,0.907,15.34c-2.301,1.82-38.694-3.417-79.899,1.302
			C143.93,154.273,103.457,163.781,98.673,159.708z"/>
		<g>
			<path d="M121.077,156.515c22.088-4.321,47.764-7.245,70.045-10.778c0.195-0.035,0.271,0.292,0.054,0.326
				c-16.104,2.849-36.276,5.62-52.553,7.964c-5.112,0.794-12.46,1.852-17.481,2.811
				C120.948,156.883,120.862,156.556,121.077,156.515L121.077,156.515z"/>
		</g>
		<g>
			<path style="fill:#FFFFFF;" d="M189.307,100.246c19.558-0.926,39.456,0.807,58.181,6.738c0.248,0.078,0.15,0.495-0.126,0.414
				c-14.121-3.967-28.741-5.91-43.377-6.522c-4.882-0.202-9.773-0.266-14.664-0.197c-0.12,0.002-0.218-0.094-0.22-0.213
				C189.1,100.349,189.192,100.253,189.307,100.246L189.307,100.246z"/>
		</g>
		<g>
			<path style="fill:#FFFFFF;" d="M196.353,130.831c20.181,0.118,41.282-0.311,61.197,3.061c0.118,0.02,0.197,0.132,0.177,0.25
				c-0.02,0.115-0.127,0.194-0.242,0.178c-15.185-2.043-30.52-2.33-45.82-2.633c-5.106-0.103-10.215-0.223-15.321-0.423
				c-0.119-0.005-0.212-0.105-0.208-0.225C196.141,130.922,196.237,130.831,196.353,130.831L196.353,130.831z"/>
		</g>
		<g>
			<path d="M124.157,370.693c-1.736-17.443-4.516-41.906-5.047-59.188c-0.012-0.2,0.322-0.233,0.33-0.016
				c0.858,14.268,2.477,30.06,3.782,44.376c0.471,4.928,0.902,9.861,1.264,14.799C124.506,370.863,124.174,370.91,124.157,370.693
				L124.157,370.693z"/>
		</g>
		<g>
			<path d="M113.465,296.876c-1.338,3.978,2.067,5.551,5.373,6.2c0.195,0.037,0.153,0.341-0.044,0.327
				c-3.717-0.06-7.696-2.521-5.637-6.645C113.241,296.578,113.522,296.687,113.465,296.876L113.465,296.876z"/>
		</g>
		<g>
			<path d="M250.93,292.982c3.058-0.408,4.256-3.484,4.434-6.257c0.012-0.195,0.315-0.197,0.33-0.002
				c0.432,2.916-1.349,6.768-4.741,6.589C250.759,293.308,250.739,293.011,250.93,292.982L250.93,292.982z"/>
		</g>
		<g>
			<path d="M249.403,332.118l2.752-23.845c0.01-0.091,0.092-0.156,0.183-0.145c0.087,0.01,0.15,0.086,0.146,0.173
				c-0.1,2.001-0.233,4-0.407,5.996c-0.345,3.991-0.805,7.973-1.375,11.939c-0.286,1.983-0.611,3.96-0.972,5.931
				C249.696,332.365,249.375,332.327,249.403,332.118L249.403,332.118z"/>
		</g>
		<g>
			<path d="M168.445,314.107c11.363,6.311,23.735,13.48,34.87,20.188c0.175,0.103,0.018,0.398-0.17,0.283
				c-8.136-4.501-18.157-10.277-26.208-15.031c-2.901-1.688-5.785-3.407-8.654-5.153C168.109,314.295,168.253,314,168.445,314.107
				L168.445,314.107z"/>
		</g>
		<g>
			<path d="M182.212,312.732c7.143,4.015,14.042,8.469,20.653,13.31c0.165,0.117-0.011,0.39-0.187,0.272
				c0,0-20.636-13.299-20.636-13.299C181.87,312.908,182.029,312.625,182.212,312.732L182.212,312.732z"/>
		</g>
		<g>
			<path d="M162.927,112.7c9.219,3.928,18.018,8.872,26.174,14.694c0.165,0.115-0.007,0.391-0.185,0.273
				c-6.316-4.037-12.781-7.833-19.435-11.286c-2.216-1.153-4.446-2.281-6.691-3.381C162.608,112.915,162.732,112.613,162.927,112.7
				L162.927,112.7z"/>
		</g>
	</g>
	<g>
		<path style="fill:#F45519;" d="M161.175,394.374c1.086-10.149,11.216-13.758,18.843-16.352c7.628-2.594,12.522,1.338,13.399-1.565
			c0.878-2.902-5.615-8.67,8.888-15.56c14.504-6.892,27.072-2.079,27.072-2.079s2.709-12.981,15.443-18.698
			c12.733-5.719,24.39,1.272,27.442-0.718c3.052-1.992,12.713-15.988,34.31-16.299c21.595-0.313,38.044,18.835,41.318,19.19
			c3.27,0.356,15.345-9.053,28.1-0.792c12.756,8.262,14.204,21.305,17.971,21.595c3.771,0.291,6.235-4.348,13.914,2.174
			c7.683,6.524,5.799,20.293,7.828,21.307c2.029,1.014,21.439-1.131,26.939,5.402c5.501,6.533-3.501,13.235-14.519,16.638
			c-11.016,3.402-25.067-0.519-29.339,0.581c-4.274,1.1-10.132,4.889-18.25,5.455c-8.118,0.567-17.478-5.271-22.408-3.685
			c-4.936,1.584-10.679,9.962-31.764,12.519c-21.086,2.554-40.882-7.822-44.402-8.186c-3.52-0.367-14.8,4.755-25.023,3.004
			c-10.224-1.749-12.706-6.939-17.124-7.56c-4.418-0.622-20.443,3.709-29.674,1.234c-9.232-2.477-8.514-8.288-13.838-8.345
			C190.976,403.577,160.451,401.139,161.175,394.374z"/>
		<path style="fill:#E24009;" d="M442.642,391.98c-1.478-1.757-3.966-2.882-6.846-3.613c-2.529,1.918-5.334,3.383-8.678,4.126
			c-11.558,1.541-21.574-4.622-28.508-14.639c-0.771-0.77-3.082-0.77-3.853,0c-12.328,16.951-26.196,0-36.212-8.475
			c-0.771,22.344-23.885,33.901-43.147,23.885c-6.934-3.082-12.328-8.475-18.491-14.639c-2.312-1.541-6.164-1.541-6.934,0
			c-3.083,4.623-5.393,9.246-10.017,11.558c-5.393,1.541-10.016,0-14.639-2.312c-4.623-3.082-8.476-12.328-13.869-7.705
			c-6.934,4.623-10.786,11.558-18.491,13.868c-11.557,3.082-19.262-6.934-27.737-9.245c-6.342-2.307-16.564-2.888-23.569-7.229
			c-0.531,0.126-1.073,0.271-1.633,0.462c-7.628,2.595-17.758,6.204-18.843,16.352c-0.724,6.764,29.801,9.202,35.126,9.26
			c5.324,0.057,4.606,5.867,13.838,8.345c9.231,2.475,25.256-1.857,29.674-1.234c4.417,0.621,6.9,5.811,17.124,7.56
			c10.223,1.752,21.503-3.371,25.023-3.004c3.52,0.365,23.315,10.741,44.402,8.186c21.085-2.557,26.828-10.934,31.764-12.519
			c4.931-1.586,14.291,4.253,22.408,3.685c8.118-0.566,13.976-4.355,18.25-5.455c4.272-1.101,18.323,2.821,29.339-0.581
			C439.141,405.214,448.143,398.513,442.642,391.98z"/>
		<g>
			<path d="M197.665,402.128c8.179-7.319,5.656-18.945-4.067-23.352c-0.19-0.078-0.064-0.388,0.13-0.303
				c7.066,2.597,11.727,10.863,8.573,18.066c-0.944,2.303-2.536,4.279-4.421,5.839C197.72,402.507,197.509,402.272,197.665,402.128
				L197.665,402.128z"/>
		</g>
		<g>
			<path d="M238.224,409.339c9.147-11.16,8.86-28.046,0.839-39.734c-2.665-3.895-6.168-7.243-10.295-9.584
				c-0.079-0.045-0.107-0.146-0.062-0.225c0.044-0.078,0.142-0.106,0.221-0.064c4.246,2.243,7.886,5.59,10.609,9.548
				c7.622,10.829,8.475,26.233,1.103,37.397c0,0-2.161,2.873-2.161,2.873C238.345,409.718,238.071,409.512,238.224,409.339
				L238.224,409.339z"/>
		</g>
		<g>
			<path d="M245.43,411.634c10.314-9.68,11.012-23.586,3.16-35.041c-2.408-3.561-5.41-6.719-8.797-9.393
				c-0.072-0.056-0.085-0.16-0.029-0.232c0.055-0.07,0.157-0.083,0.228-0.031c3.501,2.582,6.614,5.722,9.074,9.334
				c6.505,9.099,7.73,21.428,0.939,30.73c-1.092,1.59-2.958,3.52-4.35,4.875C245.5,412.025,245.258,411.786,245.43,411.634
				L245.43,411.634z"/>
		</g>
		<g>
			<path d="M193.42,376.919c8.707,0.286,17.952,7.908,16.062,17.249c-0.555,2.935-2.149,5.549-4.139,7.682
				c-0.062,0.067-0.167,0.07-0.233,0.008c-0.065-0.06-0.067-0.164-0.01-0.231c1.861-2.19,3.301-4.768,3.781-7.568
				c1.105-5.749-2.473-11.349-7.379-14.146c-2.456-1.453-5.245-2.342-8.108-2.666C193.188,377.236,193.207,376.9,193.42,376.919
				L193.42,376.919z"/>
		</g>
		<g>
			<path d="M281.896,413.948c16.58-16.175,10.699-37.298-0.26-54.801c-3.511-5.684-7.46-11.094-11.568-16.375
				c-0.056-0.072-0.043-0.176,0.029-0.232c0.071-0.055,0.173-0.043,0.23,0.026c4.223,5.2,8.257,10.573,11.798,16.279
				c8.788,13.731,15.593,32.328,6.318,47.497c-1.737,2.894-3.906,5.503-6.316,7.843
				C281.978,414.324,281.742,414.103,281.896,413.948L281.896,413.948z"/>
		</g>
		<g>
			<path d="M274.423,340.241c12.517,11.817,18.933,28.78,19.31,45.823c0.007,0.198-0.315,0.236-0.329,0.017
				c-0.781-12.611-4.108-25.244-11.252-35.783c-2.355-3.497-5.039-6.773-7.963-9.824
				C274.047,340.336,274.271,340.083,274.423,340.241L274.423,340.241z"/>
		</g>
		<g>
			<path d="M163.452,394.412c9.233,6.076,20.703,7.037,31.484,6.648c0.201-0.013,0.235,0.316,0.021,0.329
				c-10.83,0.9-22.656-0.131-31.695-6.707C163.101,394.563,163.275,394.292,163.452,394.412L163.452,394.412z"/>
		</g>
		<g>
			<path d="M201.992,404.185c9.421,8.276,22.994,6.916,34.258,3.816c0.19-0.057,0.301,0.258,0.092,0.317
				c-11.257,3.629-25.315,4.866-34.571-3.888C201.61,404.291,201.828,404.03,201.992,404.185L201.992,404.185z"/>
		</g>
		<g>
			<path d="M195.3,374.547c-1.576-5.267,2.582-10.277,7.556-11.488c0.192-0.056,0.297,0.237,0.107,0.312
				c-4.61,1.69-8.291,6.022-7.339,11.111C195.657,374.679,195.346,374.744,195.3,374.547L195.3,374.547z"/>
		</g>
		<g>
			<path d="M246.552,411.248c7.476,6.71,18.36,6.057,27.315,3.048c0.19-0.066,0.31,0.241,0.109,0.312
				c-6.746,2.578-14.648,3.797-21.53,0.923c-2.277-0.949-4.354-2.342-6.117-4.038C246.184,411.351,246.392,411.109,246.552,411.248
				L246.552,411.248z"/>
		</g>
		<g>
			<path d="M231.525,358.265c1.828-4.492,4.27-8.747,7.204-12.607c0.119-0.159,0.381,0.014,0.273,0.186
				c-2.519,4.128-4.896,8.298-7.178,12.561C231.732,358.581,231.446,358.452,231.525,358.265L231.525,358.265z"/>
		</g>
		<g>
			<path d="M358.908,407.323c6.045-14.878,2.797-31.886-3.638-46.097c-2.241-4.786-4.93-9.375-8.154-13.574
				c-0.056-0.072-0.043-0.176,0.029-0.232c0.071-0.055,0.173-0.042,0.23,0.026c3.355,4.136,6.145,8.718,8.415,13.535
				c4.547,9.617,7.247,20.255,6.863,30.939c-0.186,5.326-1.235,10.667-3.442,15.535
				C359.127,407.639,358.822,407.522,358.908,407.323L358.908,407.323z"/>
		</g>
		<g>
			<path d="M362.813,402.634c8.229-6.804,7.507-20.084,1.765-28.275c-0.126-0.16,0.134-0.371,0.262-0.2
				c4.866,6.228,6.214,15.271,3.096,22.586c-1.07,2.435-2.755,4.622-4.926,6.153C362.843,403.014,362.646,402.765,362.813,402.634
				L362.813,402.634z"/>
		</g>
		<g>
			<path d="M279.037,409.117c4.403-9.98,7.613-20.489,9.231-31.284c0.026-0.199,0.354-0.172,0.328,0.041
				c-0.831,8.184-2.918,16.225-5.911,23.879c-1.002,2.552-2.121,5.056-3.348,7.504C279.248,409.438,278.948,409.312,279.037,409.117
				L279.037,409.117z"/>
		</g>
		<g>
			<path d="M297.717,380.005c7.47,1.551,13.065,7.6,16.795,13.94c0.104,0.173-0.162,0.352-0.279,0.177
				c-4.112-5.989-9.384-11.762-16.594-13.797C297.443,380.276,297.513,379.958,297.717,380.005L297.717,380.005z"/>
		</g>
		<g>
			<path d="M317.831,397.773c6.38,6.607,12.735-0.516,14.968-6.969c0.792-2.175,1.319-4.464,1.44-6.79
				c0.004-0.091,0.081-0.162,0.172-0.158c0.088,0.004,0.156,0.077,0.158,0.164c0.012,2.373-0.427,4.739-1.193,6.989
				c-1.669,5.194-6.816,12.367-13.004,9.244C319.977,400.185,316.6,397.548,317.831,397.773L317.831,397.773z"/>
		</g>
		<g>
			<path d="M339.673,386.489c6.027,7.618,9.399,3.713,11.78-3.799c0.055-0.198,0.369-0.115,0.319,0.087
				c-0.823,3.682-3.219,10.436-8.176,8.049c-1.791-0.9-3.073-2.566-4.188-4.143C339.287,386.514,339.547,386.321,339.673,386.489
				L339.673,386.489z"/>
		</g>
		<g>
			<path d="M373.338,386.527c2.596,6.611,9.834,10.108,14.475,3.25c1.166-1.79,1.804-3.899,2.16-6.042
				c0.026-0.204,0.355-0.163,0.327,0.044c-0.228,2.194-0.781,4.406-1.972,6.328c-4.808,7.394-12.92,3.87-15.297-3.462
				C372.958,386.448,373.26,386.329,373.338,386.527L373.338,386.527z"/>
		</g>
		<g>
			<path d="M259.565,388.837c1.228,2.907,3.207,5.546,5.924,7.118c5.442,3.301,13.213,1.189,16.098-4.522
				c1.472-2.776,1.734-6.061,1.289-9.184c-0.015-0.09,0.046-0.175,0.136-0.19c0.088-0.015,0.172,0.047,0.189,0.134
				c0.593,3.174,0.419,6.593-1.105,9.506c-4.044,8.018-15.265,8.621-20.529,1.513C261.208,392.946,258.398,388.086,259.565,388.837
				L259.565,388.837z"/>
		</g>
		<g>
			<path d="M170.163,386.996c5.946,7.085,28.061,13.587,28.216-0.917c-0.014-0.21,0.327-0.223,0.33-0.011
				c0.615,11.797-14.298,10.31-21.541,6.535c-2.732-1.297-5.336-3.016-7.259-5.397C169.782,387.043,170.021,386.832,170.163,386.996
				L170.163,386.996z"/>
		</g>
		<g>
			<path d="M201.734,377.218c3.207,2.511,6.07,5.476,8.492,8.749c0.118,0.158-0.117,0.359-0.253,0.212
				c-2.792-2.948-5.599-5.832-8.459-8.714C201.375,377.326,201.579,377.092,201.734,377.218L201.734,377.218z"/>
		</g>
		<g>
			<path d="M237.407,362.816c4.402,2.302,8.384,5.483,11.594,9.275c0.058,0.07,0.048,0.175-0.022,0.233
				c-0.065,0.054-0.159,0.049-0.219-0.007c-1.794-1.698-3.612-3.354-5.547-4.874c-1.91-1.551-3.928-2.957-5.974-4.343
				C237.073,362.993,237.229,362.72,237.407,362.816L237.407,362.816z"/>
		</g>
		<g>
			<path style="fill:#FFFFFF;" d="M283.669,332.488c10.403-9.313,26.004-9.413,38.553-4.826c4.252,1.524,8.309,3.574,12.043,6.094
				c0.099,0.067,0.125,0.201,0.058,0.3c-0.065,0.097-0.196,0.123-0.294,0.063c-3.798-2.352-7.86-4.258-12.072-5.7
				c-12.422-4.316-27.451-4.304-38.009,4.4C283.752,332.994,283.45,332.668,283.669,332.488L283.669,332.488z"/>
		</g>
		<g>
			<path style="fill:#FFFFFF;" d="M348.436,343.374c8.011-4.267,17.997-4.911,26.367-1.291c0.244,0.102,0.104,0.495-0.155,0.404
				c-8.454-2.932-17.864-2.297-26.025,1.277C348.383,343.875,348.191,343.496,348.436,343.374L348.436,343.374z"/>
		</g>
		<g>
			<path style="fill:#FFFFFF;" d="M247.043,340.402c6.76-1.626,14.024-1.34,20.642,0.773c0.249,0.078,0.15,0.478-0.112,0.418
				c-6.729-1.459-13.637-1.719-20.449-0.766C246.866,340.867,246.782,340.461,247.043,340.402L247.043,340.402z"/>
		</g>
		<g>
			<path d="M334.883,397.093c1.153-9.858,0.774-19.867-1.153-29.605c-0.043-0.197,0.275-0.28,0.322-0.072
				c1.83,7.261,2.476,14.819,2.021,22.291c-0.154,2.492-0.444,4.974-0.863,7.432C335.177,397.338,334.855,397.305,334.883,397.093
				L334.883,397.093z"/>
		</g>
		<g>
			<path d="M339.506,397.085c1.328-8.259,1.725-16.647,1.154-24.993c-0.017-0.201,0.306-0.242,0.329-0.032
				c1.065,8.339,0.674,16.883-1.158,25.088C339.789,397.344,339.47,397.293,339.506,397.085L339.506,397.085z"/>
		</g>
		<g>
			<path d="M306.759,396.74c-0.741-8.922-2.016-17.788-3.848-26.552c-0.044-0.197,0.27-0.283,0.321-0.077
				c1.756,6.505,2.877,13.178,3.482,19.886c0.198,2.237,0.323,4.481,0.375,6.725C307.096,396.923,306.773,396.952,306.759,396.74
				L306.759,396.74z"/>
		</g>
		<g>
			<path d="M388.439,398.217c2.889-9.059,4.31-18.555,4.228-28.062c-0.006-0.201,0.321-0.225,0.33-0.012
				c0.452,7.163-0.292,14.399-2.07,21.349c-0.596,2.318-1.323,4.601-2.176,6.833C388.68,398.515,388.371,398.419,388.439,398.217
				L388.439,398.217z"/>
		</g>
		<g>
			<path d="M393.44,398.244c0.421-3.501,1.203-7.817,1.884-11.295c0.249-1.248,0.522-2.491,0.813-3.731
				c0.021-0.089,0.11-0.144,0.198-0.123c0.083,0.02,0.136,0.102,0.126,0.184c-0.159,1.264-0.335,2.525-0.535,3.781
				c-0.296,1.879-0.971,5.646-1.346,7.51c-0.249,1.247-0.522,2.491-0.815,3.731C393.724,398.497,393.413,398.448,393.44,398.244
				L393.44,398.244z"/>
		</g>
		<g>
			<path d="M413.085,399.428c-0.122-4.975,0.022-10.457,0.385-15.42c0.012-0.199,0.328-0.197,0.329,0.007
				c0.035,1.291,0.053,2.579,0.045,3.866c-0.007,1.919-0.102,5.779-0.19,7.695c-0.057,1.286-0.138,2.572-0.24,3.858
				C413.402,399.636,413.086,399.633,413.085,399.428L413.085,399.428z"/>
		</g>
		<g>
			<path d="M418.484,397.933c-1.197-3.183-1.589-6.699-1.162-10.071c0.013-0.091,0.097-0.154,0.187-0.141
				c0.081,0.011,0.139,0.079,0.142,0.158c0.072,3.371,0.453,6.662,1.149,9.961C418.843,398.031,418.55,398.117,418.484,397.933
				L418.484,397.933z"/>
		</g>
		<g>
			<path d="M407.491,407.354c7.728,0.706,15.542,0.053,23.047-1.921c0.194-0.055,0.295,0.255,0.094,0.317
				c-7.42,2.465-15.456,3.151-23.181,1.932C407.251,407.652,407.282,407.332,407.491,407.354L407.491,407.354z"/>
		</g>
		<g>
			<path style="fill:#FFFFFF;" d="M381.826,348.18c2.639,2.645,4.757,5.835,6.189,9.285c0.044,0.112-0.011,0.238-0.123,0.282
				c-0.097,0.038-0.205,0.001-0.261-0.082c-1.029-1.545-1.979-3.117-3.023-4.634c-0.874-1.343-2.203-3.228-3.114-4.573
				C381.345,348.25,381.648,347.997,381.826,348.18L381.826,348.18z"/>
		</g>
		<g>
			<path style="fill:#FFFFFF;" d="M394.596,363.9c3.013-0.797,6.204-0.96,9.287-0.516c0.119,0.02,0.199,0.132,0.179,0.251
				c-0.017,0.1-0.099,0.173-0.196,0.181c-1.544,0.139-3.073,0.165-4.602,0.277l-2.295,0.127c-0.766,0.039-1.533,0.091-2.308,0.107
				C394.414,364.34,394.357,363.961,394.596,363.9L394.596,363.9z"/>
		</g>
		<g>
			<path d="M307.54,363.786c-2.234-6.288-4.601-13.568-1.938-20.114c2.512-5.212,8.363-4.083,12.078-0.883
				c3.571,2.954,5.968,7.037,7.694,11.271c0.861,2.123,1.455,4.335,1.999,6.548c0.022,0.089-0.032,0.178-0.121,0.2
				c-0.088,0.022-0.177-0.036-0.2-0.123c-1.742-6.466-4.518-13.054-9.772-17.401c-7.213-5.678-12.657-1.29-12.246,7.179
				c0.123,4.519,1.376,8.941,2.815,13.209C307.928,363.865,307.611,363.99,307.54,363.786L307.54,363.786z"/>
		</g>
		<g>
			<path d="M263.88,369.955c-1.467-3.427-6.602-16.152-0.56-17.148c6.644-0.077,14.854,13.118,16.184,18.78
				c-0.084,0.033-0.179-0.01-0.214-0.092c-1.425-3.354-3.148-6.58-5.231-9.556c-2.632-3.472-5.687-7.43-10.061-8.457
				c-4.88-0.357-2.405,8.509-1.588,11.18c0.506,1.748,1.132,3.462,1.776,5.17C264.267,370.022,263.96,370.153,263.88,369.955
				L263.88,369.955z"/>
		</g>
		<g>
			<path d="M219.447,365.652c7.23,5.272,12.896,12.722,15.975,21.129c0.071,0.189-0.224,0.318-0.307,0.123
				c-2.652-6.093-6.362-11.712-10.995-16.478c-1.539-1.59-3.167-3.097-4.877-4.513C219.087,365.788,219.279,365.523,219.447,365.652
				L219.447,365.652z"/>
		</g>
		<g>
			<path d="M265.136,350.74c4.509,1.994,8.522,5.253,11.355,9.292c0.115,0.162-0.129,0.358-0.26,0.203
				c-3.206-3.698-7.004-6.762-11.244-9.2C264.813,350.938,264.952,350.655,265.136,350.74L265.136,350.74z"/>
		</g>
		<g>
			<path d="M310.331,336.869c6.741,2.82,12.826,7.275,17.518,12.881c0.131,0.153-0.102,0.374-0.246,0.221
				c-3.774-3.906-8.015-7.348-12.664-10.159c-1.546-0.939-3.129-1.821-4.747-2.643C310.011,337.082,310.139,336.784,310.331,336.869
				L310.331,336.869z"/>
		</g>
		<g>
			<path d="M368.147,371.483c-0.907-2.793-6.269-18.44,1.197-14.64c2.622,1.589,4.654,3.835,6.714,6.042
				c2.023,2.211,3.907,4.536,5.73,6.906c0.056,0.072,0.042,0.176-0.03,0.232c-0.07,0.054-0.17,0.042-0.227-0.025
				c-2.906-3.391-5.771-6.836-9.043-9.876c-1.51-1.236-3.35-3.248-5.359-3.19c-2.845,1.045,0.751,11.981,1.332,14.454
				C368.525,371.581,368.21,371.685,368.147,371.483L368.147,371.483z"/>
		</g>
		<g>
			<path d="M367.891,351.271c3.892,2.732,7.396,6.01,10.478,9.626c1.027,1.207,1.996,2.464,2.907,3.758
				c0.052,0.075,0.035,0.178-0.04,0.23c-0.07,0.05-0.167,0.036-0.222-0.029c-1.013-1.207-2.05-2.391-3.105-3.556
				c-2.112-2.328-4.335-4.551-6.665-6.661c-1.164-1.056-2.349-2.092-3.555-3.107C367.534,351.406,367.724,351.148,367.891,351.271
				L367.891,351.271z"/>
		</g>
		<g>
			<path d="M286.574,414.301c12.547,5.333,26.265,8.996,39.974,7.307c0.197-0.03,0.261,0.298,0.046,0.327
				c-10.265,1.643-20.827-0.081-30.579-3.445c-3.268-1.104-6.462-2.416-9.576-3.888
				C286.258,414.518,286.374,414.215,286.574,414.301L286.574,414.301z"/>
		</g>
	</g>
	<g>
		<g>
			<path style="fill:#491B08;" d="M82.921,380.465c-3.769-8.673,22.66-22.314,32.666-10.456
				C125.596,381.867,91.728,400.723,82.921,380.465z"/>
			<path style="opacity:0.5;fill:#491B08;" d="M82.921,380.465c-3.769-8.673,22.66-22.314,32.666-10.456
				C125.596,381.867,91.728,400.723,82.921,380.465z"/>
			<path style="opacity:0.5;fill:#491B08;" d="M88.45,377.5c0.799-3.609,23.248-5.376,24.43-2.743
				C114.063,377.389,87.651,381.108,88.45,377.5z"/>
			<g>
				<path d="M114.912,376.385c-4.221,8.04-13.747,11.893-22.52,11.071c-0.202-0.014-0.196-0.335,0.015-0.33
					c8.644,0.278,17.612-3.295,22.221-10.91C114.73,376.043,115.02,376.203,114.912,376.385L114.912,376.385z"/>
			</g>
			<g>
				<path style="fill:#FFFFFF;" d="M83.599,379.007c2.28-4.936,6.742-8.986,11.963-10.579c0.247-0.077,0.394,0.299,0.153,0.405
					c-4.884,2.194-8.897,5.875-11.736,10.382C83.844,379.435,83.484,379.243,83.599,379.007L83.599,379.007z"/>
			</g>
		</g>
		<g>
			<path style="fill:#491B08;" d="M89.587,411.682c-3.769-8.673,22.66-22.314,32.666-10.456
				C132.262,413.083,98.394,431.941,89.587,411.682z"/>
			<path style="opacity:0.5;fill:#491B08;" d="M95.117,408.716c0.799-3.609,23.248-5.375,24.429-2.743
				C120.729,408.606,94.317,412.325,95.117,408.716z"/>
			<g>
				<path d="M121.578,407.602c-4.22,8.04-13.747,11.893-22.52,11.072c-0.202-0.015-0.196-0.335,0.015-0.33
					c8.644,0.277,17.612-3.296,22.221-10.91C121.396,407.26,121.685,407.42,121.578,407.602L121.578,407.602z"/>
			</g>
			<g>
				<path style="fill:#FFFFFF;" d="M90.265,410.225c2.28-4.936,6.741-8.987,11.962-10.58c0.247-0.077,0.394,0.299,0.153,0.405
					c-4.884,2.194-8.897,5.875-11.735,10.383C90.51,410.653,90.15,410.461,90.265,410.225L90.265,410.225z"/>
			</g>
		</g>
		<g>
			<path style="fill:#491B08;" d="M110.19,373.739c5.454-7.726,30.838,7.772,25.903,22.482
				C131.16,410.932,97.453,391.787,110.19,373.739z"/>
			<path style="opacity:0.5;fill:#491B08;" d="M115.597,376.922c3.499-1.192,16.668,17.074,15.033,19.451
				C128.994,398.751,112.098,378.114,115.597,376.922z"/>
			<g>
				<path d="M130.294,398.956c-9.063,0.569-17.303-5.569-21.159-13.493c-0.093-0.18,0.184-0.342,0.29-0.158
					c4.253,7.531,11.964,13.337,20.865,13.321C130.492,398.622,130.505,398.953,130.294,398.956L130.294,398.956z"/>
			</g>
			<g>
				<path style="fill:#FFFFFF;" d="M111.788,373.56c5.402-0.616,11.182,1.093,15.254,4.727c0.194,0.171-0.051,0.492-0.267,0.341
					c-4.411-3.034-9.642-4.552-14.967-4.636C111.549,373.991,111.526,373.584,111.788,373.56L111.788,373.56z"/>
			</g>
		</g>
	</g>
	<g>
		<g>
			<path style="fill:#EB8E0C;" d="M114.412,427.274c2.485-9.607,30.706-17.549,42.867-11.215
				c12.161,6.333,8.919,17.561-8.526,20.204C131.307,438.907,111.076,440.175,114.412,427.274z"/>
			<path style="fill:#EAA80F;" d="M157.279,416.059c-6.292-3.276-16.879-2.727-25.98-0.107c7.87,5.85,15.379,12.324,22.523,19.189
				C166.702,431.284,168.148,421.72,157.279,416.059z"/>
			<g>
				<path d="M122.414,425.935c0,0,0.085-0.122,0.245-0.35c0.155-0.23,0.388-0.564,0.751-0.961c0.339-0.416,0.803-0.853,1.347-1.345
					c0.55-0.486,1.203-0.994,1.954-1.492c2.993-1.997,7.435-3.951,12.125-4.952c1.171-0.253,2.361-0.415,3.535-0.543
					c1.178-0.094,2.342-0.161,3.472-0.091c1.127,0.064,2.223,0.192,3.229,0.497c1.002,0.29,1.941,0.694,2.658,1.304
					c0.724,0.584,1.252,1.32,1.472,2.05c0.154,0.352,0.2,0.703,0.246,1.026c0.071,0.321,0.049,0.619,0.045,0.887
					c0.019,0.538-0.089,0.945-0.128,1.226c-0.047,0.28-0.072,0.43-0.072,0.43c-0.015,0.089-0.1,0.149-0.189,0.135
					c-0.087-0.015-0.147-0.096-0.136-0.183l0.003-0.022c0,0,0.018-0.143,0.053-0.414c0.028-0.271,0.117-0.666,0.079-1.17
					c-0.006-0.252,0.006-0.532-0.073-0.823c-0.054-0.296-0.106-0.616-0.259-0.927c-0.223-0.651-0.717-1.275-1.37-1.801
					c-0.651-0.543-1.529-0.91-2.481-1.172c-0.953-0.276-2.012-0.387-3.103-0.435c-1.094-0.054-2.231,0.026-3.38,0.133
					c-1.147,0.141-2.31,0.313-3.457,0.576c-4.615,0.932-9.027,2.796-11.978,4.713c-0.736,0.484-1.39,0.955-1.945,1.404
					c-0.544,0.455-1.02,0.87-1.351,1.247c-0.355,0.356-0.603,0.682-0.768,0.908c-0.169,0.222-0.259,0.339-0.259,0.339
					c-0.055,0.073-0.158,0.088-0.231,0.033C122.379,426.108,122.364,426.008,122.414,425.935z"/>
			</g>
			<g>
				<path d="M149.801,421.42c0,0-0.695-0.057-1.911-0.157c-1.218-0.104-2.948-0.19-5.032-0.235c-1.041-0.018-2.17-0.021-3.359,0.037
					c-1.189,0.051-2.444,0.141-3.723,0.332c-1.282,0.172-2.595,0.449-3.855,0.896c-0.321,0.102-0.626,0.233-0.923,0.381
					c-0.312,0.127-0.581,0.31-0.858,0.482c-0.517,0.365-0.986,0.858-0.983,1.368c-0.02,0.509,0.455,0.993,0.988,1.329l0.419,0.247
					l0.456,0.194c0.297,0.145,0.624,0.227,0.94,0.33c1.284,0.369,2.614,0.536,3.901,0.628c1.291,0.067,2.546,0.066,3.734,0.002
					c1.189-0.056,2.31-0.18,3.344-0.294c1.028-0.161,1.979-0.256,2.811-0.416c0.833-0.151,1.564-0.259,2.157-0.397
					c1.191-0.252,1.871-0.396,1.871-0.396l0.005-0.001c0.089-0.02,0.177,0.038,0.196,0.127c0.019,0.087-0.036,0.173-0.122,0.194
					c0,0-0.679,0.167-1.867,0.458c-0.592,0.158-1.324,0.29-2.158,0.469c-0.833,0.189-1.788,0.32-2.826,0.486
					c-1.043,0.126-2.175,0.264-3.38,0.334c-1.204,0.079-2.48,0.095-3.8,0.04c-1.319-0.081-2.688-0.233-4.048-0.609
					c-0.338-0.104-0.682-0.188-1.012-0.342l-0.5-0.209l-0.481-0.275c-0.165-0.082-0.314-0.203-0.46-0.329
					c-0.148-0.124-0.303-0.235-0.418-0.411c-0.12-0.165-0.262-0.31-0.321-0.528c-0.087-0.201-0.15-0.407-0.127-0.637
					c0.031-0.93,0.719-1.507,1.296-1.922c0.314-0.192,0.624-0.393,0.956-0.525c0.325-0.156,0.653-0.293,0.989-0.397
					c1.332-0.456,2.682-0.722,3.992-0.883c1.309-0.181,2.581-0.257,3.786-0.295c1.205-0.046,2.344-0.029,3.394,0
					c1.05,0.034,2.011,0.08,2.861,0.165c0.851,0.07,1.592,0.131,2.197,0.209c1.212,0.141,1.905,0.221,1.905,0.221
					c0.091,0.01,0.156,0.092,0.145,0.183C149.969,421.363,149.889,421.427,149.801,421.42z"/>
			</g>
			<g>
				<path d="M114.874,428.984c0,0,0.339,0.381,0.933,1.05c0.277,0.359,0.705,0.677,1.161,1.077c0.437,0.42,1.03,0.782,1.652,1.205
					c0.302,0.226,0.651,0.407,1.015,0.589c0.362,0.184,0.729,0.388,1.119,0.571c0.809,0.306,1.636,0.691,2.552,0.934
					c0.894,0.307,1.855,0.493,2.824,0.709c0.982,0.151,1.976,0.344,2.986,0.413c1.005,0.119,2.017,0.167,3.014,0.206
					c0.997,0.029,1.98,0.025,2.931,0.002c1.901-0.063,3.679-0.167,5.194-0.343c1.517-0.157,2.782-0.313,3.662-0.449
					c0.882-0.133,1.386-0.209,1.386-0.209c0.09-0.017,0.175,0.044,0.191,0.134c0.016,0.087-0.045,0.171-0.131,0.19
					c0,0-0.502,0.099-1.381,0.271c-0.879,0.169-2.139,0.404-3.665,0.597c-1.523,0.207-3.312,0.379-5.236,0.459
					c-0.962,0.031-1.958,0.043-2.97,0.021c-1.012-0.031-2.041-0.071-3.066-0.185c-1.028-0.073-2.043-0.281-3.044-0.443
					c-0.991-0.228-1.972-0.43-2.891-0.752c-0.939-0.251-1.787-0.672-2.609-1.009c-0.399-0.199-0.774-0.42-1.143-0.619
					c-0.37-0.197-0.724-0.395-1.033-0.635c-0.637-0.45-1.228-0.848-1.672-1.315c-0.46-0.441-0.89-0.801-1.146-1.165
					c-0.563-0.694-0.885-1.091-0.885-1.091c-0.057-0.07-0.046-0.175,0.024-0.231C114.716,428.909,114.816,428.919,114.874,428.984z"
					/>
			</g>
			<g>
				<path style="fill:#FFFFFF;" d="M152.258,415.116c0,0,0.179,0.018,0.493,0.053c0.313,0.057,0.758,0.058,1.296,0.202
					c0.533,0.142,1.186,0.257,1.819,0.527c0.319,0.13,0.665,0.229,0.988,0.396c0.327,0.159,0.659,0.319,0.991,0.48
					c0.325,0.175,0.627,0.392,0.936,0.582c0.312,0.186,0.603,0.395,0.87,0.618c0.273,0.213,0.534,0.424,0.768,0.637
					c0.223,0.227,0.433,0.442,0.626,0.641c0.406,0.377,0.636,0.793,0.839,1.039c0.185,0.263,0.291,0.412,0.291,0.412
					c0.069,0.098,0.045,0.232-0.052,0.301c-0.086,0.061-0.201,0.05-0.274-0.021l-0.019-0.019c0,0-0.128-0.123-0.351-0.338
					c-0.226-0.213-0.508-0.547-0.924-0.871c-0.199-0.17-0.415-0.354-0.643-0.549c-0.244-0.174-0.501-0.358-0.768-0.549
					c-0.256-0.202-0.537-0.39-0.838-0.558c-0.298-0.171-0.586-0.367-0.899-0.522c-0.31-0.161-0.62-0.321-0.925-0.48
					c-0.301-0.169-0.626-0.271-0.925-0.405c-0.306-0.117-0.591-0.268-0.875-0.355c-0.282-0.099-0.549-0.193-0.795-0.279
					c-0.491-0.178-0.944-0.28-1.241-0.374c-0.302-0.093-0.474-0.146-0.474-0.146c-0.115-0.035-0.179-0.156-0.144-0.271
					C152.059,415.167,152.157,415.105,152.258,415.116z"/>
			</g>
		</g>
		<g>
			<g>
				<path style="fill:#632C0F;" d="M165.717,432.296c-1.237-2.542,3.093-8.565,9.279-9.04c6.185-0.478,14.156,0.475,13.561,3.449
					C187.962,429.677,167.858,436.696,165.717,432.296z"/>
				<g>
					<path d="M168.723,431.066c0,0,0.892-0.107,2.232-0.22c0.335-0.026,0.698-0.056,1.082-0.087
						c0.387-0.017,0.777-0.115,1.191-0.161c0.823-0.117,1.7-0.241,2.577-0.365c0.871-0.18,1.742-0.359,2.559-0.527
						c0.405-0.097,0.81-0.137,1.176-0.249c0.37-0.101,0.718-0.195,1.041-0.283c1.291-0.343,2.166-0.546,2.166-0.546l0.013-0.003
						c0.088-0.02,0.177,0.035,0.198,0.123c0.019,0.082-0.026,0.164-0.102,0.192c0,0-0.842,0.315-2.124,0.749
						c-0.321,0.106-0.669,0.223-1.037,0.345c-0.366,0.133-0.77,0.205-1.181,0.304c-0.826,0.186-1.707,0.385-2.588,0.583
						c-0.899,0.111-1.799,0.223-2.643,0.327c-0.42,0.045-0.83,0.117-1.214,0.112c-0.385,0.009-0.749,0.018-1.085,0.025
						c-1.345,0.024-2.243,0.011-2.243,0.011c-0.091-0.002-0.164-0.077-0.163-0.168C168.578,431.144,168.641,431.076,168.723,431.066
						z"/>
				</g>
				<g>
					<path style="fill:#FFFFFF;" d="M173.622,424.287c0,0.001,0.616-0.083,1.54-0.149c0.462-0.023,0.998-0.087,1.588-0.043
						c0.588,0.025,1.215,0.052,1.841,0.079c0.618,0.089,1.235,0.179,1.814,0.263c0.581,0.07,1.107,0.226,1.561,0.339
						c0.905,0.24,1.495,0.435,1.495,0.435c0.114,0.038,0.175,0.161,0.137,0.274c-0.032,0.097-0.124,0.155-0.221,0.148l-0.016-0.001
						c0,0-0.619-0.045-1.527-0.166c-0.452-0.072-0.981-0.141-1.551-0.188c-0.567-0.062-1.172-0.128-1.777-0.194
						c-1.208-0.075-2.405-0.217-3.339-0.24c-0.925-0.051-1.541-0.125-1.541-0.124c-0.12-0.015-0.205-0.123-0.191-0.243
						C173.447,424.377,173.526,424.301,173.622,424.287z"/>
				</g>
			</g>
			<g>
				<path style="fill:#632C0F;" d="M166.193,416.949c-0.403-2.955,6.542-7.611,10.825-4.28
					C181.301,415.998,166.55,419.568,166.193,416.949z"/>
				<g>
					<path d="M168.398,416.388c0,0,0.507-0.145,1.275-0.316c0.192-0.041,0.401-0.086,0.621-0.134
						c0.224-0.039,0.441-0.123,0.677-0.177c0.466-0.122,0.964-0.252,1.462-0.382c0.494-0.152,0.988-0.305,1.451-0.447
						c0.469-0.13,0.897-0.276,1.26-0.417c0.733-0.26,1.238-0.408,1.238-0.408l0.013-0.004c0.088-0.025,0.18,0.024,0.205,0.111
						c0.022,0.076-0.012,0.154-0.078,0.191c0,0-0.461,0.257-1.176,0.607c-0.359,0.172-0.774,0.384-1.249,0.533
						c-0.471,0.162-0.973,0.334-1.475,0.506c-0.52,0.119-1.04,0.238-1.528,0.35c-0.487,0.129-0.945,0.153-1.335,0.203
						c-0.783,0.084-1.309,0.109-1.309,0.109c-0.092,0.004-0.17-0.066-0.174-0.158C168.274,416.477,168.325,416.408,168.398,416.388z
						"/>
				</g>
				<g>
					<path style="fill:#FFFFFF;" d="M171.851,412.98c0,0,0.214-0.018,0.518,0.012c0.149,0.024,0.329,0.029,0.511,0.076
						c0.182,0.045,0.376,0.092,0.57,0.139c0.188,0.068,0.376,0.136,0.553,0.199c0.176,0.064,0.331,0.156,0.468,0.218
						c0.27,0.143,0.439,0.273,0.439,0.273c0.102,0.078,0.12,0.224,0.042,0.325c-0.042,0.054-0.103,0.084-0.166,0.089
						c0,0-0.213,0.017-0.517-0.014c-0.149-0.023-0.329-0.032-0.511-0.075c-0.182-0.044-0.376-0.092-0.57-0.139
						c-0.188-0.066-0.376-0.134-0.553-0.197c-0.178-0.06-0.331-0.155-0.469-0.218c-0.27-0.142-0.438-0.274-0.438-0.274
						c-0.101-0.079-0.118-0.226-0.039-0.326C171.729,413.015,171.789,412.985,171.851,412.98z"/>
				</g>
			</g>
			<g>
				<path style="fill:#632C0F;" d="M183.076,417.728c1.583-2.528,9.899-1.657,11.056,3.643
					C195.29,426.672,181.674,419.969,183.076,417.728z"/>
				<g>
					<path d="M185.13,418.709c0,0,0.482,0.214,1.182,0.574c0.174,0.092,0.363,0.19,0.563,0.295c0.197,0.113,0.418,0.188,0.634,0.298
						c0.436,0.205,0.901,0.425,1.367,0.644c0.477,0.199,0.955,0.398,1.402,0.585c0.443,0.2,0.866,0.362,1.234,0.487
						c0.73,0.27,1.212,0.479,1.213,0.478l0.012,0.006c0.084,0.036,0.123,0.134,0.086,0.217c-0.031,0.072-0.108,0.111-0.182,0.098
						c0.001-0.001-0.518-0.098-1.292-0.288c-0.386-0.098-0.841-0.2-1.301-0.39c-0.465-0.178-0.961-0.366-1.457-0.556
						c-0.476-0.242-0.951-0.483-1.397-0.71c-0.457-0.213-0.824-0.487-1.156-0.699c-0.654-0.436-1.075-0.754-1.076-0.754
						c-0.073-0.056-0.087-0.16-0.032-0.233C184.977,418.698,185.06,418.678,185.13,418.709z"/>
				</g>
				<g>
					<path style="fill:#FFFFFF;" d="M186.871,415.745c0,0,0.346,0.082,0.837,0.26c0.242,0.097,0.535,0.179,0.827,0.359
						c0.294,0.166,0.608,0.344,0.922,0.521c0.282,0.22,0.563,0.439,0.827,0.644c0.27,0.197,0.472,0.44,0.658,0.632
						c0.361,0.396,0.571,0.682,0.571,0.682c0.071,0.098,0.05,0.235-0.047,0.307c-0.071,0.052-0.163,0.055-0.235,0.016l-0.018-0.01
						c0,0-0.31-0.171-0.73-0.461c-0.204-0.153-0.449-0.319-0.717-0.488c-0.261-0.178-0.539-0.368-0.816-0.558
						c-0.565-0.349-1.095-0.737-1.555-1.01c-0.44-0.281-0.716-0.505-0.716-0.505c-0.095-0.077-0.11-0.217-0.032-0.313
						C186.702,415.753,186.79,415.726,186.871,415.745z"/>
				</g>
			</g>
		</g>
	</g>
</g>
</svg>
